<svg id="svg" version="1.1" xmlns="http://www.w3.org/2000/svg" xmlns:xlink="http://www.w3.org/1999/xlink" width="400" height="400" viewBox="0, 0, 400,400"><g id="svgg"><path id="path0" d="M64.400 14.200 L 64.400 28.400 158.000 28.400 L 251.600 28.400 251.600 76.400 L 251.600 124.400 293.600 124.400 L 335.600 124.400 335.600 262.200 L 335.600 400.000 352.000 400.000 L 368.400 400.000 368.400 245.800 L 368.400 91.600 326.400 91.600 L 284.400 91.600 284.400 45.800 L 284.400 0.000 174.400 0.000 L 64.400 0.000 64.400 14.200 " stroke="none" fill="#04acfc" fill-rule="evenodd"/><path id="path1" d="M31.600 200.000 L 31.600 400.000 170.000 400.000 L 308.400 400.000 308.400 287.800 L 308.400 175.600 260.000 175.600 L 211.600 175.600 211.600 256.000 L 211.600 336.400 228.000 336.400 L 244.400 336.400 244.400 272.400 L 244.400 208.400 260.000 208.400 L 275.600 208.400 275.600 288.000 L 275.600 367.600 170.000 367.600 L 64.400 367.600 64.400 198.024 C 64.400 85.404,64.266 28.364,64.000 28.200 C 63.746 28.043,63.600 22.863,63.600 13.976 L 63.600 0.000 47.600 0.000 L 31.600 0.000 31.600 200.000 " stroke="none" fill="#047cc4" fill-rule="evenodd"/><path id="path2" d="M64.180 13.800 C 64.180 21.500,64.234 24.593,64.299 20.674 C 64.365 16.755,64.365 10.455,64.299 6.674 C 64.234 2.893,64.180 6.100,64.180 13.800 " stroke="none" fill="#04b0f0" fill-rule="evenodd"/><path id="path3" d="" stroke="none" fill="#0498d0" fill-rule="evenodd"/><path id="path4" d="M63.780 14.000 C 63.780 21.810,63.834 25.005,63.899 21.100 C 63.965 17.195,63.965 10.805,63.899 6.900 C 63.834 2.995,63.780 6.190,63.780 14.000 " stroke="none" fill="#047cd4" fill-rule="evenodd"/></g></svg>